<svg width="335" height="86" viewBox="0 0 335 86" fill="none" xmlns="http://www.w3.org/2000/svg">
<path d="M223.232 37.7323L195.466 28.475L195.963 23.6261C196.381 16.6506 201.49 11.2608 208.922 11.7078C216.278 12.1509 220.94 18.0066 220.515 25.1007L220.248 28.6546C220.18 29.7857 221.041 30.7554 222.172 30.8235C223.303 30.8916 224.272 30.0309 224.341 28.8998L224.608 25.344C225.173 15.9548 218.821 8.19331 209.17 7.61396C199.481 7.03267 192.428 14.1465 191.873 23.3796L191.486 27.146L188.233 26.0615C183.943 24.6314 179.292 26.9568 177.862 31.2462L170.083 54.5797C168.653 58.8692 170.978 63.5205 175.267 64.9506L210.268 76.6195C214.557 78.0496 219.208 75.7242 220.638 71.4347L228.418 48.1013C229.848 43.8118 227.522 39.1605 223.233 37.7304L223.232 37.7323ZM216.748 70.1421C216.034 72.2849 213.706 73.4489 211.563 72.7345L176.563 61.0656C174.418 60.3505 173.256 58.0229 173.97 55.8801L181.749 32.5467C182.464 30.4039 184.79 29.2392 186.935 29.9543L221.935 41.6232C224.078 42.3376 225.242 44.6658 224.528 46.8086L216.748 70.1421ZM201.842 43.5666C199.695 42.8509 197.373 44.0103 196.657 46.1589C196.178 47.5939 196.552 49.097 197.484 50.1575L195.36 56.5295C195.002 57.6028 195.582 58.7643 196.656 59.1222C197.729 59.48 198.891 58.8994 199.249 57.826L201.373 51.454C202.754 51.167 203.956 50.187 204.434 48.752C205.151 46.6034 203.991 44.2829 201.842 43.5666Z" fill="#062448"/>
<path d="M10.688 24.3524V63.3284H25.344L24.704 68.4484H4.864V24.3524H10.688ZM41.557 23.6484C46.421 23.6484 50.2183 25.547 52.949 29.3444C55.6797 33.099 57.045 38.795 57.045 46.4324C57.045 53.9844 55.6797 59.6804 52.949 63.5204C50.2183 67.3177 46.421 69.2164 41.557 69.2164C36.693 69.2164 32.8743 67.339 30.101 63.5844C27.3703 59.8297 26.005 54.1337 26.005 46.4964C26.005 38.9444 27.3917 33.2484 30.165 29.4084C32.9383 25.5684 36.7357 23.6484 41.557 23.6484ZM41.557 28.3844C38.485 28.3844 36.1383 29.7924 34.517 32.6084C32.9383 35.4244 32.149 40.0537 32.149 46.4964C32.149 52.8964 32.9597 57.483 34.581 60.2564C36.2023 63.0297 38.5277 64.4164 41.557 64.4164C44.629 64.4164 46.9543 63.051 48.533 60.3204C50.1117 57.547 50.901 52.9177 50.901 46.4324C50.901 39.9897 50.1117 35.3817 48.533 32.6084C46.9543 29.7924 44.629 28.3844 41.557 28.3844ZM78.2415 23.6484C80.3322 23.6484 82.1668 24.011 83.7455 24.7364C85.3242 25.419 86.9028 26.4857 88.4815 27.9364L85.4735 31.4564C84.2788 30.3897 83.1268 29.6217 82.0175 29.1524C80.9082 28.6404 79.6922 28.3844 78.3695 28.3844C72.0975 28.3844 68.9615 34.379 68.9615 46.3684C68.9615 58.315 72.1615 64.2884 78.5615 64.2884C80.0122 64.2884 81.2708 64.011 82.3375 63.4564C83.4468 62.859 84.5775 62.027 85.7295 60.9604L88.8655 64.3524C87.5855 65.7604 86.0708 66.9337 84.3215 67.8724C82.5722 68.7684 80.6095 69.2164 78.4335 69.2164C73.6975 69.2164 69.9002 67.2964 67.0415 63.4564C64.2255 59.6164 62.8175 53.9204 62.8175 46.3684C62.8175 41.291 63.4788 37.067 64.8015 33.6964C66.1668 30.283 68.0015 27.7657 70.3055 26.1444C72.6522 24.4804 75.2975 23.6484 78.2415 23.6484ZM100.438 24.3524V68.4484H94.614V24.3524H100.438ZM120.406 24.3524L106.966 44.5124L121.366 68.4484H114.774L100.694 44.8964L114.198 24.3524H120.406ZM137.07 23.6484C140.099 23.6484 142.51 24.5444 144.302 26.3364C146.137 28.1284 147.054 30.4537 147.054 33.3124C147.054 35.8724 146.393 38.0697 145.07 39.9044C143.79 41.6964 141.955 43.4244 139.566 45.0884L148.526 55.9044C149.934 52.107 150.979 48.5017 151.662 45.0884L156.526 46.4324C155.246 51.339 153.689 55.5844 151.854 59.1684L157.934 65.8884L153.774 69.2164L148.718 62.9444C147.139 65.035 145.39 66.6137 143.47 67.6804C141.593 68.7044 139.459 69.2164 137.07 69.2164C134.723 69.2164 132.633 68.7257 130.798 67.7444C129.006 66.7204 127.598 65.3124 126.574 63.5204C125.55 61.6857 125.038 59.595 125.038 57.2484C125.038 54.6457 125.635 52.363 126.83 50.4004C128.067 48.4377 129.945 46.4964 132.462 44.5764C130.627 42.571 129.283 40.7577 128.43 39.1364C127.619 37.515 127.214 35.6377 127.214 33.5044C127.214 30.5604 128.067 28.1924 129.774 26.4004C131.481 24.5657 133.913 23.6484 137.07 23.6484ZM137.134 27.7444C135.726 27.7444 134.617 28.235 133.806 29.2164C133.038 30.155 132.654 31.563 132.654 33.4404C132.654 35.019 132.953 36.4484 133.55 37.7284C134.147 39.0084 135.15 40.5017 136.558 42.2084C138.307 40.8004 139.587 39.4777 140.398 38.2404C141.209 37.003 141.614 35.467 141.614 33.6324C141.614 29.707 140.121 27.7444 137.134 27.7444ZM135.534 47.5844C133.87 48.9497 132.675 50.379 131.95 51.8724C131.225 53.323 130.862 55.0724 130.862 57.1204C130.862 59.595 131.459 61.4937 132.654 62.8164C133.849 64.0964 135.449 64.7364 137.454 64.7364C139.118 64.7364 140.611 64.331 141.934 63.5204C143.257 62.7097 144.494 61.4937 145.646 59.8724L135.534 47.5844ZM254.378 24.3524C259.54 24.3524 263.444 25.5044 266.09 27.8084C268.778 30.1124 270.122 33.5044 270.122 37.9844C270.122 42.763 268.756 46.3257 266.026 48.6724C263.338 50.9764 259.498 52.1284 254.506 52.1284H251.626V68.4484H245.802V24.3524H254.378ZM254.506 47.5204C257.791 47.5204 260.202 46.8377 261.738 45.4724C263.274 44.0644 264.042 41.5897 264.042 38.0484C264.042 34.8484 263.252 32.5444 261.674 31.1364C260.138 29.6857 257.748 28.9604 254.506 28.9604H251.626V47.5204H254.506ZM296.463 24.3524L295.823 29.0244H282.063V43.6804H294.031V48.3524H282.063V63.7764H296.719V68.4484H276.239V24.3524H296.463ZM329.972 68.4484H322.228L308.66 30.8804C308.916 33.867 309.108 36.5337 309.236 38.8804C309.406 41.227 309.492 44.171 309.492 47.7124V68.4484H304.052V24.3524H311.796L325.364 61.9844C325.193 61.3444 325.001 59.595 324.788 56.7364C324.617 53.8777 324.532 51.211 324.532 48.7364V24.3524H329.972V68.4484Z" fill="#062448"/>
</svg>
